
    <svg width="196" height="71" viewBox="0 0 196 71" fill="none" xmlns="http://www.w3.org/2000/svg">
<rect width="196" height="71" rx="10" fill="black"/>
<g filter="url(#filter0_d_1130_1285)">
<path d="M23 15.4272H27.4444L28.3333 20.0798M31.8889 38.6898H54.1111L63 20.0798H28.3333M31.8889 38.6898L28.3333 20.0798M31.8889 38.6898L26.7936 44.0237C25.3936 45.4892 26.3851 47.9949 28.3649 47.9949H54.1111M54.1111 47.9949C51.6565 47.9949 49.6667 50.0779 49.6667 52.6474C49.6667 55.2169 51.6565 57.2999 54.1111 57.2999C56.5657 57.2999 58.5556 55.2169 58.5556 52.6474C58.5556 50.0779 56.5657 47.9949 54.1111 47.9949ZM36.3333 52.6474C36.3333 55.2169 34.3435 57.2999 31.8889 57.2999C29.4343 57.2999 27.4444 55.2169 27.4444 52.6474C27.4444 50.0779 29.4343 47.9949 31.8889 47.9949C34.3435 47.9949 36.3333 50.0779 36.3333 52.6474Z" stroke="white" stroke-width="3" stroke-linecap="round" stroke-linejoin="round" shape-rendering="crispEdges"/>
</g>
<ellipse cx="62.5133" cy="17.5" rx="7.49915" ry="7.48754" transform="rotate(0.0952697 62.5133 17.5)" fill="#36A9E1"/>
<path d="M60.3487 17.4753C60.3501 16.6289 60.4375 15.9487 60.6109 15.4347C60.7875 14.9174 61.0469 14.5191 61.3892 14.2397C61.7347 13.9603 62.1679 13.8211 62.6887 13.8219C63.0728 13.8226 63.4096 13.9013 63.6991 14.058C63.9885 14.2115 64.2274 14.4348 64.4157 14.7281C64.6041 15.0182 64.7516 15.3732 64.8583 15.7933C64.965 16.2102 65.0178 16.7734 65.0166 17.483C65.0152 18.3229 64.9278 19.0014 64.7545 19.5187C64.5811 20.0328 64.3216 20.4311 63.9761 20.7137C63.6338 20.9931 63.2007 21.1324 62.6766 21.1315C61.9865 21.1303 61.4449 20.8821 61.0518 20.3866C60.5808 19.7901 60.3464 18.8197 60.3487 17.4753ZM61.252 17.4768C61.25 18.6519 61.3854 19.435 61.6582 19.8261C61.9343 20.2139 62.2741 20.4082 62.6778 20.4088C63.0814 20.4095 63.4203 20.2148 63.6944 19.8246C63.9717 19.4344 64.1114 18.6534 64.1133 17.4815C64.1153 16.3032 63.9782 15.52 63.7022 15.1322C63.4294 14.7444 63.0879 14.5501 62.6778 14.5495C62.2741 14.5488 61.9516 14.7191 61.7101 15.0605C61.4066 15.4962 61.2539 16.3016 61.252 17.4768Z" fill="white"/>
<g filter="url(#filter1_d_1130_1285)">
<path d="M99.2793 44V33.2627H103.33C104.042 33.2627 104.587 33.2969 104.963 33.3652C105.49 33.4531 105.932 33.6216 106.289 33.8706C106.645 34.1147 106.931 34.459 107.146 34.9033C107.365 35.3477 107.475 35.8359 107.475 36.3682C107.475 37.2812 107.185 38.0552 106.604 38.6899C106.022 39.3198 104.973 39.6348 103.454 39.6348H100.7V44H99.2793ZM100.7 38.3677H103.476C104.394 38.3677 105.046 38.1968 105.432 37.855C105.817 37.5132 106.01 37.0322 106.01 36.4121C106.01 35.9629 105.896 35.5796 105.666 35.2622C105.441 34.9399 105.144 34.7275 104.772 34.625C104.533 34.5615 104.091 34.5298 103.447 34.5298H100.7V38.3677ZM106.992 44L111.115 33.2627H112.646L117.041 44H115.422L114.169 40.748H109.68L108.5 44H106.992ZM110.09 39.5908H113.73L112.609 36.6172C112.268 35.7139 112.014 34.9717 111.848 34.3906C111.711 35.0791 111.518 35.7627 111.269 36.4414L110.09 39.5908ZM118.161 44V33.2627H119.619L125.258 41.6929V33.2627H126.621V44H125.163L119.523 35.5625V44H118.161ZM129.257 44V33.2627H130.678V44H129.257ZM133.22 44V33.2627H140.983V34.5298H134.641V37.8184H140.581V39.0781H134.641V42.7329H141.232V44H133.22ZM143.217 44V33.2627H147.978C148.935 33.2627 149.663 33.3604 150.161 33.5557C150.659 33.7461 151.057 34.0854 151.354 34.5737C151.652 35.062 151.801 35.6016 151.801 36.1924C151.801 36.9541 151.555 37.5962 151.062 38.1187C150.568 38.6411 149.807 38.9731 148.776 39.1147C149.152 39.2954 149.438 39.4736 149.633 39.6494C150.048 40.0303 150.441 40.5063 150.812 41.0776L152.68 44H150.893L149.472 41.7661C149.057 41.1216 148.715 40.6284 148.447 40.2866C148.178 39.9448 147.937 39.7056 147.722 39.5688C147.512 39.4321 147.297 39.3369 147.077 39.2832C146.916 39.249 146.652 39.2319 146.286 39.2319H144.638V44H143.217ZM144.638 38.0015H147.692C148.342 38.0015 148.85 37.9355 149.216 37.8037C149.582 37.667 149.86 37.4521 150.051 37.1592C150.241 36.8613 150.336 36.5391 150.336 36.1924C150.336 35.6846 150.151 35.2671 149.78 34.9399C149.414 34.6128 148.833 34.4492 148.037 34.4492H144.638V38.0015Z" fill="white"/>
</g>
<defs>
<filter id="filter0_d_1130_1285" x="16.5" y="12.9272" width="53" height="54.8727" filterUnits="userSpaceOnUse" color-interpolation-filters="sRGB">
<feFlood flood-opacity="0" result="BackgroundImageFix"/>
<feColorMatrix in="SourceAlpha" type="matrix" values="0 0 0 0 0 0 0 0 0 0 0 0 0 0 0 0 0 0 127 0" result="hardAlpha"/>
<feOffset dy="4"/>
<feGaussianBlur stdDeviation="2.5"/>
<feComposite in2="hardAlpha" operator="out"/>
<feColorMatrix type="matrix" values="0 0 0 0 0 0 0 0 0 0 0 0 0 0 0 0 0 0 0.25 0"/>
<feBlend mode="normal" in2="BackgroundImageFix" result="effect1_dropShadow_1130_1285"/>
<feBlend mode="normal" in="SourceGraphic" in2="effect1_dropShadow_1130_1285" result="shape"/>
</filter>
<filter id="filter1_d_1130_1285" x="94.2793" y="32.2627" width="63.4009" height="20.7373" filterUnits="userSpaceOnUse" color-interpolation-filters="sRGB">
<feFlood flood-opacity="0" result="BackgroundImageFix"/>
<feColorMatrix in="SourceAlpha" type="matrix" values="0 0 0 0 0 0 0 0 0 0 0 0 0 0 0 0 0 0 127 0" result="hardAlpha"/>
<feOffset dy="4"/>
<feGaussianBlur stdDeviation="2.5"/>
<feComposite in2="hardAlpha" operator="out"/>
<feColorMatrix type="matrix" values="0 0 0 0 0 0 0 0 0 0 0 0 0 0 0 0 0 0 0.25 0"/>
<feBlend mode="normal" in2="BackgroundImageFix" result="effect1_dropShadow_1130_1285"/>
<feBlend mode="normal" in="SourceGraphic" in2="effect1_dropShadow_1130_1285" result="shape"/>
</filter>
</defs>
</svg>

